<svg width="312" height="310" viewBox="0 0 312 310" fill="none" xmlns="http://www.w3.org/2000/svg">
<circle opacity="0.06" cx="154.918" cy="154.918" r="154.918" fill="white"/>
<circle opacity="0.08" cx="154.917" cy="154.918" r="122.303" fill="white"/>
<circle opacity="0.1" cx="154.918" cy="154.918" r="93.1835" fill="white"/>
<circle opacity="0.15" cx="154.917" cy="154.917" r="65.0827" fill="white"/>
<path d="M178.435 181.832C179.761 181.821 180.959 181.256 181.735 180.29C182.426 179.421 182.674 178.346 182.447 177.26C182.242 176.272 181.563 175.132 180.678 174.274C176.709 170.419 174.594 166.184 174.217 161.351C174.023 158.875 174.023 156.356 174.012 153.924C174.012 153.153 174.012 152.382 174.001 151.611C173.904 141.74 167.669 134.16 158.112 132.292C156.72 132.021 156.105 131.239 156.159 129.849C156.224 128.383 156.203 126.863 156.181 125.407L156.17 124.973C156.17 124.604 156.062 123.388 154.962 123.366C154.045 123.301 153.743 124.159 153.722 124.919C153.678 126.461 153.657 128.111 153.722 129.773C153.786 131.228 153.128 132.032 151.64 132.281C143.938 133.552 137.66 139.709 136.354 147.256C135.847 150.232 135.869 153.392 135.891 156.454L135.901 158.137C135.923 164.729 133.69 170.017 129.084 174.306C127.358 175.914 126.894 177.553 127.671 179.334C128.437 181.104 129.828 181.875 132.115 181.864C133.787 181.843 135.448 181.832 137.12 181.832C138.328 181.832 139.526 181.832 140.745 181.843L145.081 181.854L145.275 182.505C146.71 187.316 149.935 190.193 154.121 190.4C159.428 190.66 162.901 188.076 164.692 182.483L164.897 181.854L169.471 181.864C172.469 181.854 175.457 181.864 178.435 181.832ZM161.725 183.102C160.485 186.165 157.95 187.978 154.919 187.978C154.843 187.978 154.779 187.978 154.703 187.978C151.704 187.891 149.148 185.958 148.177 183.048L147.778 181.843L162.232 181.843L161.725 183.102Z" fill="white"/>
<path d="M184.424 150.033L184.381 149.177L184.392 149.177C184.381 149.09 184.371 148.992 184.371 148.906C184.286 148.093 184.212 147.269 184.085 146.467C183.004 139.39 179.964 133.148 175.028 127.924C174.699 127.578 174.265 127.307 173.809 127.307C173.555 127.307 173.29 127.393 173.047 127.621C172.485 128.119 172.549 128.781 173.227 129.604C173.365 129.778 173.523 129.94 173.672 130.103L173.905 130.363C177.898 134.774 180.451 139.976 181.511 145.828C181.744 147.096 181.85 148.385 181.945 149.632C182.009 150.369 182.062 151.095 182.146 151.832C182.242 152.688 182.623 153.002 183.439 152.937C183.968 152.894 184.456 152.71 184.498 151.647C184.509 151.29 184.487 150.932 184.456 150.585C184.445 150.401 184.424 150.217 184.424 150.033Z" fill="white"/>
<path d="M125.778 152.693C125.958 152.877 126.243 152.964 126.591 152.942C127.045 152.931 127.679 152.91 127.763 151.165C127.848 149.421 127.964 147.958 128.196 146.495C129.22 140.179 132.008 134.544 136.474 129.745C137.013 129.159 137.519 128.325 136.844 127.653C136.601 127.415 136.326 127.317 136.062 127.307C135.64 127.317 135.165 127.588 134.7 128.076C128.925 134.23 125.778 141.728 125.335 150.353L125.335 150.753L125.335 151.165C125.345 151.891 125.504 152.422 125.778 152.693Z" fill="white"/>
<path d="M272.706 116L270.294 116L270.294 125.318L272.706 125.318L272.706 116Z" fill="#F8FAFB"/>
<path d="M276.153 119.506L266.835 119.506L266.835 121.824L276.153 121.824L276.153 119.506Z" fill="#F8FAFB"/>
<path d="M308.645 188.221L306.94 186.516L300.351 193.105L302.056 194.81L308.645 188.221Z" fill="#F8FAFB"/>
<path d="M308.604 193.138L302.015 186.549L300.376 188.188L306.965 194.777L308.604 193.138Z" fill="#F8FAFB"/>
<path d="M36.8486 175.308H34.1396V185.778H36.8486V175.308Z" fill="#F8FAFB"/>
<path d="M40.74 179.228H30.2708V181.832H40.74V179.228Z" fill="#F8FAFB"/>
<path d="M75.203 112.876L73.498 111.172L66.909 117.761L68.6139 119.466L75.203 112.876Z" fill="#F8FAFB"/>
<path d="M75.1701 117.786L68.5811 111.196L66.942 112.836L73.5311 119.425L75.1701 117.786Z" fill="#F8FAFB"/>
<path d="M216.494 179.318C213.92 179.318 211.835 177.233 211.835 174.659C211.835 172.085 213.92 170 216.494 170C219.068 170 221.153 172.085 221.153 174.659C221.153 177.233 219.057 179.318 216.494 179.318ZM216.494 172.33C215.213 172.33 214.165 173.378 214.165 174.659C214.165 175.94 215.213 176.989 216.494 176.989C217.775 176.989 218.824 175.94 218.824 174.659C218.824 173.378 217.775 172.33 216.494 172.33Z" fill="#F8FAFB"/>
<circle cx="194.648" cy="104.648" r="11.6479" fill="white"/>
<path d="M189.989 104.066L194.771 108.142L200.472 101.154" stroke="#2469C7" stroke-width="2"/>
</svg>
