<svg width="1920" height="2460" viewBox="0 0 1920 2460" fill="none" xmlns="http://www.w3.org/2000/svg">
<g opacity="0.5">
<path d="M6.09231 2060.88C-34.6745 1993.05 -59.8515 1913.58 -69.3888 1835.19C-82.8294 1724.83 -70.8787 1612.24 -53.7637 1501.65C1.61793 1144.25 211.639 771.294 596.478 759.945C854.599 752.304 1094.04 895.103 1284.24 1059.87C1563.67 1301.93 1886.21 1908.83 1411.12 2168.46C1093.81 2341.87 940.806 2140.19 672.063 2181.47C546.128 2200.8 321.531 2270.17 195.958 2224.89C113.995 2195.38 50.7006 2135.09 6.09231 2060.88Z" fill="#F7F0E7"/>
<path d="M730.161 2525.65C685.219 2521.93 632.029 2512.72 613.306 2471.63C599.891 2442.19 611.219 2405.91 633.58 2382.62C655.94 2359.33 687.181 2346.83 718.314 2338.19C826.015 2308.22 1117.41 2313.5 1164 2452.14C1220.07 2618.64 798.393 2531.29 730.161 2525.65Z" fill="#F7F0E7"/>
</g>
</svg>
