<svg width="1110" height="608" viewBox="0 0 1110 608" fill="none" xmlns="http://www.w3.org/2000/svg">
<mask id="mask0" mask-type="alpha" maskUnits="userSpaceOnUse" x="0" y="0" width="1110" height="608">
<path d="M48 608C21.4903 608 -9.39372e-07 586.51 -2.09815e-06 560L-2.44784e-05 48.0001C-2.56371e-05 21.4904 21.4903 6.00958e-05 48 5.8937e-05L1062 1.46137e-05C1088.51 1.34549e-05 1110 21.4904 1110 48L1110 560C1110 586.51 1088.51 608 1062 608L48 608Z" fill="#2469C7"/>
</mask>
<g mask="url(#mask0)">
<g opacity="0.5">
<path d="M-170.562 644.781C-182.161 608.128 -173.812 559.762 -201.061 537.554C-237.635 507.757 -310.052 549.108 -361.112 542.142C-416.282 534.63 -452.284 493.953 -468.116 421.271C-482.429 355.642 -460.074 283.904 -405.184 219.272C-311.549 109.02 -148.872 49.6335 -134.829 -96.4683C-128.845 -158.747 -155.929 -212.93 -122.927 -285.416C-89.8534 -358.07 -4.00023 -438.558 85.8335 -481.17C213.315 -541.616 261.566 -486.706 263.11 -486.25C266.161 -483.528 337.325 -417.783 306.662 -265.526C264.305 -55.1801 501.993 -212.503 654.984 -170.192C670.268 -165.968 686.853 -159.436 693.997 -143.083C708.095 -110.842 679.115 -61.4152 650.019 -28.8902C605.79 20.5409 550.851 53.9207 511.577 105.088C463.92 167.191 491.683 212.192 501.345 266.007C516.681 351.474 467.725 426.523 374.95 443.866C343.698 449.714 313.754 448.861 283.064 457.489C151.33 494.509 63.3566 717.733 -82.5042 711.01C-124.415 709.087 -158.242 683.796 -170.562 644.781Z" stroke="white" stroke-width="2" stroke-miterlimit="10"/>
<path d="M-91.5008 622.875C-159.155 588.34 -122.411 512.262 -158.299 482.983C-189.677 457.391 -251.89 492.576 -295.785 486.371C-343.312 479.678 -374.318 444.452 -387.947 381.685C-400.271 324.977 -381.024 262.954 -333.787 207.064C-253.512 112.057 -113.819 60.2868 -101.396 -65.127C-95.9865 -118.964 -118.961 -165.655 -90.2389 -228.324C-36.1936 -345.979 164.401 -471.701 243.947 -402.118L243.881 -402.041C257.209 -393 306.023 -330.046 282.696 -212.343C247.144 -32.1701 450.421 -166.531 582.148 -129.188C595.303 -125.461 609.588 -119.716 615.753 -105.506C627.907 -77.5078 602.921 -34.6478 577.84 -6.46178C540.21 35.831 492.411 65.5073 458.941 109.26C418.162 162.539 441.726 201.332 449.774 247.749C462.574 321.394 420.398 386.794 339.806 402.141C313.032 407.265 286.998 406.71 260.53 414.225C147.12 446.383 70.5983 638.114 -55.3936 632.231C-68.5149 631.623 -80.7481 628.367 -91.5008 622.875Z" stroke="white" stroke-width="2" stroke-miterlimit="10"/>
<path d="M-93.0349 505.38C-101.665 478.961 -96.0035 444.347 -115.509 428.421C-141.629 407.084 -193.73 436.057 -230.439 430.623C-270.323 424.749 -296.343 394.988 -307.759 342.141C-318.086 294.339 -301.985 242.049 -262.391 194.906C-195.261 114.867 -78.7695 71.1554 -67.9731 -33.7405C-63.1722 -79.0055 -81.9779 -118.433 -57.5433 -171.214C-11.2935 -270.67 157.366 -375.95 224.833 -317.948L224.814 -317.921C232.158 -313.228 244.026 -294.979 250.359 -280.129C260.345 -256.729 269.91 -216.739 258.759 -159.132C230.062 -9.32765 399.058 -120.475 509.361 -88.1639C520.406 -84.9231 532.39 -79.9847 537.558 -67.9087C547.739 -44.1505 526.774 -7.87939 505.719 15.9728C473.991 51.9166 434.504 76.4749 406.353 113.433C372.432 157.915 391.817 190.529 398.241 229.506C408.624 292.017 372.442 347.2 304.711 360.435C282.188 364.886 260.192 364.621 238.044 370.981C142.42 398.446 78.1939 558.505 -28.2447 553.484C-59.3453 551.985 -83.8761 533.196 -93.0349 505.38Z" stroke="white" stroke-width="2" stroke-miterlimit="10"/>
<path d="M-54.2708 435.672C-61.4101 414.409 -57.119 386.612 -72.7322 373.837C-93.8174 356.641 -135.375 379.55 -165.107 374.853C-196.89 369.866 -218.489 344.874 -227.576 302.562C-235.924 263.675 -222.93 221.118 -190.989 182.699C-136.947 117.564 -43.959 82.0346 -34.5272 -2.44948C-30.4419 -39.1045 -45.0312 -71.3003 -24.8339 -114.185C13.2169 -194.965 150.15 -280.456 205.694 -233.824L205.628 -233.747C211.105 -230.525 220.683 -218.044 227.115 -203.402C235.377 -184.631 243.408 -152.479 234.815 -106.013C212.701 13.5238 347.919 -74.4489 436.568 -47.1944C445.495 -44.445 455.158 -40.2852 459.348 -30.3522C467.575 -10.8424 450.613 18.8484 433.594 38.3718C408.37 67.2957 376.229 87.886 353.76 117.589C326.671 153.316 341.654 178.105 346.705 211.264C354.529 261.868 325.271 307.309 269.631 318.704C261.94 320.278 254.348 321.202 247.011 322.09C204.399 327.267 186.938 332.106 123.14 398.426C85.9588 437.086 47.5022 477.053 -1.1194 474.711C-26.0366 473.471 -46.4619 458.607 -54.2708 435.672Z" stroke="white" stroke-width="2" stroke-miterlimit="10"/>
<path d="M-15.489 365.973C-21.2173 349.845 -18.1865 328.902 -29.9479 319.257C-45.8773 306.247 -77.1798 323.034 -99.7866 319.077C-124.034 314.909 -140.483 295.503 -147.383 262.988C-153.741 233.04 -143.875 200.207 -119.606 170.539C-78.8127 120.506 -8.97618 92.8587 -1.10244 28.8918C2.34401 0.79403 -8.07519 -24.1006 7.87344 -57.1134C38.3324 -120.199 143.293 -184.508 186.538 -149.698C191.378 -147.188 198.997 -137.314 203.922 -126.674C210.46 -112.514 216.976 -88.2288 210.874 -52.864C195.499 36.3727 296.399 -28.5145 363.785 -6.19092C370.573 -3.92429 377.944 -0.565527 381.128 7.22759C387.389 22.4648 374.44 45.58 361.456 60.7556C342.295 83.1535 318.102 99.0666 301.147 121.724C280.88 148.708 291.801 167.914 295.15 193.02C300.731 233.908 275.909 267.928 234.542 276.935C191.186 286.366 185.466 273.676 122.638 337.734C93.6759 367.258 63.7407 397.78 26.0007 395.898C6.37677 394.904 -9.17051 383.769 -15.489 365.973Z" stroke="white" stroke-width="2" stroke-miterlimit="10"/>
<path d="M23.287 296.307C19.0397 285.33 20.7294 271.201 12.8195 264.686C2.14452 255.855 -19.0519 266.52 -34.5131 263.312C-51.1886 259.928 -62.4948 246.14 -67.2179 223.417C-71.5743 202.451 -64.8445 179.375 -48.2699 158.41C-20.6265 123.453 26.0392 103.677 32.3228 60.1735C35.1581 40.5916 28.9096 23.0167 40.5717 -0.0884051C62.7001 -43.8999 135.71 -89.1779 167.356 -65.5728C179.515 -59.7687 191.885 -33.4724 186.924 0.219581C178.23 59.1646 245.334 17.5172 291.029 34.8198C295.679 36.6036 300.72 39.1785 302.915 44.8233C307.17 55.7673 298.704 71.7717 289.363 83.1007C283.348 90.3862 276.599 96.7616 270.077 102.921C241.279 130.124 237.686 138.278 242.1 164.425C244.647 179.518 246.141 196.474 233.147 213.784C220.135 231.122 202.534 234.982 187.148 237.556C164.863 241.258 156.021 243.795 122.133 277.094C101.389 297.481 79.9353 318.558 53.1153 317.118C39.239 316.364 28.06 308.623 23.287 296.307Z" stroke="white" stroke-width="2" stroke-miterlimit="10"/>
<path d="M62.0861 226.741C59.3651 221.032 59.6563 213.538 55.5569 210.115C49.898 205.434 38.9458 209.954 30.651 207.508C21.5756 204.846 15.4506 196.66 12.9385 183.821C10.5949 171.862 14.1506 158.579 22.9657 146.413C37.4151 126.457 61.1263 114.554 65.7614 91.3379C67.9565 80.2947 65.981 69.9083 73.3498 56.801C87.7222 31.2489 128.248 7.0591 147.635 18.2551C153.282 19.4044 164.659 30.7361 162.953 53.1599C162.093 64.4233 166.339 69.7675 176.73 70.5167C188.183 71.3277 220.18 69.0669 224.676 82.4945C226.563 88.1099 223.808 96.6338 217.325 105.32C214.047 109.719 210.368 113.58 206.822 117.306C192.363 132.495 190.677 136.286 191.708 150.676C192.403 160.279 192.095 169.794 184.486 179.788C176.55 190.206 166.521 193.094 157.233 195.308C144.943 198.241 140.464 199.7 121.679 216.482C109.105 227.705 96.104 239.32 80.1967 238.337C72.3066 237.832 65.3966 233.675 62.0861 226.741Z" stroke="white" stroke-width="2" stroke-miterlimit="10"/>
<path d="M101.419 157.885C90.525 152.313 89.7699 135.733 99.7365 120.934C109.703 106.136 126.681 98.6258 137.576 104.198C148.47 109.769 149.225 126.349 139.258 141.148C129.292 155.947 112.314 163.456 101.419 157.885Z" stroke="white" stroke-width="2" stroke-miterlimit="10"/>
</g>
</g>
</svg>
