<svg width="375" height="724" viewBox="0 0 375 724" fill="none" xmlns="http://www.w3.org/2000/svg">
<mask id="mask0" mask-type="alpha" maskUnits="userSpaceOnUse" x="0" y="0" width="375" height="724">
<path d="M0 724L-3.1647e-05 0L375 -1.63918e-05L375 724L0 724Z" fill="#2469C7"/>
</mask>
<g mask="url(#mask0)">
<g opacity="0.5">
<path d="M-136.662 647.075C-145.372 610.517 -133.91 562.035 -158.809 540.092C-192.23 510.65 -265.374 552.768 -314.439 546.321C-367.453 539.368 -399.562 499.034 -409.876 426.468C-419.206 360.944 -392.528 288.932 -334.774 223.697C-236.252 112.417 -74.267 51.3282 -50.49 -95.0099C-40.3563 -157.39 -62.8736 -211.329 -25.8129 -284.199C11.3288 -357.237 100.231 -438.655 190.365 -482.213C318.271 -544.002 361.277 -489.551 362.744 -489.11C365.516 -486.418 430.004 -421.36 389.671 -268.692C333.955 -57.7797 575.534 -217.635 721.054 -176.862C735.592 -172.792 751.233 -166.426 757.028 -150.135C768.469 -118.018 736.914 -68.2633 706.419 -35.42C660.066 14.495 604.435 48.4581 562.769 100.06C512.209 162.69 536.024 207.435 541.66 261.186C550.604 346.549 497.884 422.147 406.652 440.45C375.92 446.622 346.921 446.075 316.541 455.022C186.137 493.413 85.2599 717.679 -55.814 712.445C-96.3497 710.95 -127.418 685.988 -136.662 647.075Z" stroke="white" stroke-width="2" stroke-miterlimit="10"/>
<path d="M-58.4084 624.345C-121.66 590.481 -80.7183 513.979 -113.509 485.048C-142.179 459.761 -204.994 495.605 -247.158 489.846C-292.812 483.634 -320.452 448.703 -329.317 386.036C-337.337 329.418 -314.351 267.159 -264.63 210.75C-180.132 114.862 -40.9801 61.6293 -20.2116 -63.991C-11.2222 -117.918 -30.272 -164.403 1.95286 -227.405C62.5714 -345.688 265.959 -473.542 338.314 -404.729L338.245 -404.651C350.55 -395.741 393.545 -333.247 362.732 -215.231C315.715 -34.5796 522.305 -171.106 647.536 -135.087C660.042 -131.492 673.505 -125.89 678.501 -111.734C688.35 -83.8422 661.126 -40.6994 634.83 -12.239C595.375 30.4656 546.931 60.6498 511.413 104.773C468.14 158.503 488.31 197.079 492.895 243.443C500.199 317.004 454.73 382.877 375.459 399.058C349.121 404.459 323.897 404.17 297.691 411.961C185.406 445.3 97.8305 637.935 -24.0208 633.337C-36.7111 632.864 -48.3557 629.73 -58.4084 624.345Z" stroke="white" stroke-width="2" stroke-miterlimit="10"/>
<path d="M-51.7161 506.791C-58.2553 480.443 -50.3565 445.75 -68.1773 430.013C-92.0414 408.93 -144.612 438.455 -179.856 433.393C-218.15 427.923 -241.331 398.409 -248.738 345.647C-255.438 297.92 -236.181 245.431 -194.485 197.854C-123.783 117.078 -7.70588 72.1462 10.0583 -32.9264C17.8617 -78.2691 2.35227 -117.529 29.7299 -170.593C81.5191 -270.585 252.497 -377.658 313.934 -320.31L313.914 -320.282C320.715 -315.662 330.963 -297.523 336.077 -282.728C344.142 -259.415 350.645 -219.498 335.822 -161.74C297.568 -11.5478 469.279 -124.495 574.069 -93.2919C584.562 -90.1621 595.847 -85.3431 600.024 -73.3124C608.252 -49.6433 585.389 -13.1348 563.3 10.9479C530.015 47.2391 489.992 72.2169 460.107 109.486C424.101 154.344 440.646 186.78 444.171 225.715C449.904 288.161 410.96 343.748 344.316 357.684C322.151 362.369 300.826 362.329 278.891 368.92C184.193 397.38 110.749 558.197 7.81263 554.263C-22.2624 553.081 -44.761 534.531 -51.7161 506.791Z" stroke="white" stroke-width="2" stroke-miterlimit="10"/>
<path d="M-9.24297 436.642C-14.6936 415.439 -8.59843 387.58 -22.8613 374.957C-42.1271 357.966 -84.0448 381.314 -112.57 376.919C-143.064 372.254 -162.286 347.467 -168.165 305.222C-173.563 266.395 -157.999 223.679 -124.335 184.908C-67.3693 119.18 25.3317 82.6761 40.3534 -1.9578C46.8642 -38.6777 34.944 -70.7445 57.5221 -113.863C100.057 -195.084 238.872 -282.029 289.53 -235.936L289.461 -235.858C294.552 -232.69 302.978 -220.299 308.203 -205.714C314.916 -187.016 320.475 -154.926 308.909 -108.342C279.145 11.4958 416.468 -77.9161 500.597 -51.5515C509.067 -48.8916 518.155 -44.8281 521.531 -34.9318C528.159 -15.4938 509.637 14.3892 491.766 34.0991C465.28 63.2994 432.661 84.2316 408.795 114.183C380.026 150.21 392.843 174.861 395.441 207.99C399.517 258.546 367.969 304.314 313.186 316.285C305.614 317.94 298.182 318.942 291.002 319.905C249.292 325.522 232.012 330.543 165.498 397.557C126.733 436.622 86.6391 477.007 39.6211 475.162C15.5285 474.175 -3.25886 459.511 -9.24297 436.642Z" stroke="white" stroke-width="2" stroke-miterlimit="10"/>
<path d="M33.2514 366.501C28.8134 350.421 33.2093 329.434 22.4667 319.904C7.91364 307.048 -23.6269 324.166 -45.2883 320.438C-68.5275 316.515 -83.1398 297.265 -87.5764 264.801C-91.6652 234.9 -79.8111 201.945 -54.201 172.01C-11.1413 121.528 58.5449 93.1486 70.6291 29.061C75.9253 0.910369 67.5446 -23.8933 85.3137 -57.09C119.252 -120.527 225.567 -185.95 265.112 -151.561C269.635 -149.099 276.341 -139.297 280.381 -128.701C285.742 -114.599 290.376 -90.3645 281.999 -54.9151C260.881 34.5349 363.296 -31.4255 427.133 -9.77742C433.562 -7.57883 440.482 -4.29339 443.029 3.47204C448.046 18.6547 433.876 41.917 420.222 57.2349C400.073 79.8429 375.492 96.0136 357.466 118.859C335.925 146.067 345.188 165.173 346.694 190.26C349.268 231.117 322.819 265.413 282.053 274.848C239.328 284.729 234.659 272.09 169.244 336.831C139.09 366.669 107.922 397.517 71.4318 396.02C52.4588 395.227 38.1462 384.244 33.2514 366.501Z" stroke="white" stroke-width="2" stroke-miterlimit="10"/>
<path d="M75.733 296.393C72.3744 285.453 74.9954 271.297 67.773 264.86C58.0284 256.132 36.7204 267.021 21.941 263.97C5.9957 260.754 -4.01702 247.073 -7.02138 224.384C-9.79191 203.45 -1.65885 180.29 15.8801 159.142C45.1313 123.881 91.7854 103.616 100.905 60.0206C105.016 40.3974 100.174 22.8756 113.095 -0.363281C137.61 -44.4284 211.598 -90.4817 240.664 -67.1857C252.059 -61.5024 262.235 -35.3163 255.081 -1.55264C242.55 57.518 310.555 15.1581 353.692 32.0038C358.079 33.7412 362.792 36.2661 364.529 41.8919C367.899 52.7992 358.572 68.9002 348.721 80.3318C342.378 87.6835 335.387 94.1318 328.631 100.362C298.798 127.877 294.745 136.072 297.212 162.19C298.634 177.266 298.906 194.218 285.096 211.672C271.265 229.154 253.918 233.197 238.811 235.929C216.93 239.861 208.175 242.49 172.979 276.157C151.435 296.769 129.154 318.078 103.23 316.912C89.8181 316.299 79.5088 308.668 75.733 296.393Z" stroke="white" stroke-width="2" stroke-miterlimit="10"/>
<path d="M118.225 226.386C115.982 220.701 116.785 213.2 113.045 209.817C107.88 205.19 96.9402 209.826 89.0626 207.462C80.4424 204.893 75.0687 196.764 73.5232 183.943C72.0802 172.001 76.4526 158.673 85.85 146.41C101.255 126.294 125.086 114.141 131.196 90.8634C134.093 79.791 132.898 69.4185 140.957 56.2279C156.676 30.5133 197.675 5.89419 215.707 16.8986C221.105 17.9908 231.356 29.2129 228.143 51.6678C226.526 62.9468 230.275 68.2507 240.305 68.8941C251.359 69.5884 282.56 66.9988 285.989 80.3885C287.43 85.9881 284.165 94.5453 277.272 103.303C273.786 107.738 269.948 111.639 266.249 115.404C251.166 130.75 249.267 134.561 249.268 148.948C249.275 158.55 248.315 168.074 240.239 178.152C231.815 188.657 221.885 191.65 212.72 193.961C200.593 197.021 196.145 198.526 176.755 215.511C163.776 226.87 150.355 238.624 134.99 237.804C127.371 237.379 120.955 233.29 118.225 226.386Z" stroke="white" stroke-width="2" stroke-miterlimit="10"/>
<path d="M161.111 157.082C150.938 151.619 151.357 135.04 162.044 120.132C172.732 105.224 189.71 97.5373 199.883 103C210.057 108.463 209.638 125.043 198.95 139.95C188.263 154.858 171.285 162.545 161.111 157.082Z" stroke="white" stroke-width="2" stroke-miterlimit="10"/>
</g>
</g>
</svg>
