<svg width="1144" height="552" viewBox="0 0 1144 552" fill="none" xmlns="http://www.w3.org/2000/svg">
<mask id="mask0" mask-type="alpha" maskUnits="userSpaceOnUse" x="0" y="0" width="1140" height="552">
<rect width="1140" height="552" fill="#2469C7"/>
</mask>
<g mask="url(#mask0)">
<g opacity="0.05">
<path d="M365.432 442.996C347.904 402.541 349.946 355.723 317.807 325.6C274.672 285.179 203.459 307.089 148.137 285.843C88.365 262.899 44.2992 211.585 17.17 133.353C-7.34583 62.7091 6.29555 -3.96522 55.5634 -54.3916C139.609 -140.411 304.322 -155.594 298.597 -300.121C296.155 -361.73 259.669 -424.29 284.534 -488.77C309.451 -553.4 389.426 -611.341 478.995 -629.699C606.105 -655.727 665.219 -586.553 666.926 -585.661C670.558 -582.049 755.588 -495.509 744.497 -349.341C729.179 -147.406 959.86 -241.266 1128.65 -155.823C1145.51 -147.291 1164.09 -136.052 1174 -117.456C1193.57 -80.7896 1169.72 -38.6197 1143.36 -13.6527C1103.28 24.2896 1049.54 42.9531 1014.99 84.0346C973.058 133.899 1008.97 187.32 1026.86 244.672C1055.27 335.754 1013.79 398.41 917.519 390.281C885.09 387.549 853.103 378.372 821.665 378.62C686.717 379.668 624.678 582.026 468.508 534.716C423.637 521.132 384.061 486.05 365.432 442.996Z" stroke="black" stroke-width="2" stroke-miterlimit="10"/>
<path d="M446.415 442.68C369.533 388.82 397.873 321.73 355.54 282.025C318.528 247.318 257.3 265.796 209.71 247.31C158.187 227.32 120.207 182.929 96.8243 115.382C75.6864 54.3508 87.3949 -3.31692 129.757 -46.9862C201.744 -121.225 343.077 -135.05 338.556 -259.011C336.696 -312.203 305.643 -366.012 327.342 -421.707C368.212 -526.234 563.894 -598.284 658.389 -505.519L658.33 -505.458C673.792 -492.575 734.644 -415.072 726.472 -301.971C714.126 -128.799 911.441 -208.881 1056.9 -134.386C1071.43 -126.949 1087.44 -117.148 1096.02 -101.001C1112.91 -69.1842 1092.38 -32.577 1069.68 -10.9034C1035.62 21.6183 988.951 38.5011 959.523 73.661C923.664 116.47 954.227 162.419 969.359 211.809C993.398 290.177 957.768 344.912 874.175 338.136C846.407 335.911 818.624 328.122 791.52 328.411C675.381 329.605 621.073 503.149 486.163 462.206C472.114 457.947 458.635 451.244 446.415 442.68Z" stroke="black" stroke-width="2" stroke-miterlimit="10"/>
<path d="M428.086 322.88C415.164 293.645 416.293 260.052 393.282 238.458C362.467 209.533 311.119 224.507 271.284 208.798C228.009 191.762 196.109 154.305 176.483 97.4497C158.731 46.0208 168.468 -2.63381 203.935 -39.5379C264.053 -102.219 381.839 -114.296 378.489 -217.865C377.195 -262.518 351.604 -307.793 370.14 -354.632C405.29 -442.835 569.884 -502.982 649.887 -425.332L649.871 -425.31C658.35 -418.504 673.562 -396.671 682.402 -379.827C696.34 -353.283 712.177 -310.002 708.459 -254.572C699.112 -110.348 863.234 -176.362 985.189 -112.924C997.403 -106.566 1010.85 -98.2233 1018.06 -84.5207C1032.26 -57.5589 1015.08 -26.5288 996.046 -8.14067C967.365 19.5694 928.818 33.5597 904.087 63.2928C874.282 99.0687 899.525 137.582 911.875 178.962C931.769 245.35 901.07 291.369 830.863 286.016C807.524 284.288 784.079 277.914 761.407 278.228C663.53 279.591 617.824 424.372 503.841 389.731C470.532 379.577 441.768 353.681 428.086 322.88Z" stroke="black" stroke-width="2" stroke-miterlimit="10"/>
<path d="M459.418 262.817C448.812 239.234 449.446 212.185 431.023 194.873C406.15 171.552 365.164 183.291 332.857 170.267C298.327 156.379 271.805 124.995 256.148 79.487C241.763 37.6634 249.57 -1.96532 278.128 -32.1316C326.427 -83.3046 420.363 -93.592 418.448 -176.804C417.61 -212.909 397.529 -249.667 412.957 -287.629C442.024 -359.136 575.659 -407.983 641.369 -345.193L641.31 -345.132C647.594 -340.339 659.553 -325.001 668.469 -308.341C679.918 -286.978 693.013 -252.085 690.442 -207.263C683.818 -91.9599 815.277 -143.805 913.477 -91.5124C923.366 -86.2417 934.238 -79.3337 940.103 -68.0795C951.618 -45.9757 937.767 -20.5195 922.417 -5.40867C899.664 16.9752 868.372 28.9732 848.662 52.9134C824.886 81.6906 844.339 111.033 854.406 146.123C869.891 199.704 845.182 237.748 787.58 233.882C779.618 233.347 771.668 232.178 763.986 231.044C719.368 224.477 701.47 224.547 642.956 274.216C608.856 303.173 573.583 333.103 521.507 317.23C494.813 309.054 470.973 288.284 459.418 262.817Z" stroke="black" stroke-width="2" stroke-miterlimit="10"/>
<path d="M490.751 202.771C482.372 184.796 482.635 164.36 468.752 151.297C449.958 133.657 419.016 142.024 394.396 131.729C367.998 120.764 347.746 96.4827 335.802 61.534C324.798 29.3432 330.654 -1.27562 352.286 -24.6814C388.625 -64.191 459.043 -72.896 458.373 -135.699C458.066 -163.289 443.455 -191.473 455.759 -220.586C479.252 -276.225 581.866 -312.427 632.818 -265.059C638.325 -261.165 647.831 -249.019 654.577 -236.842C663.54 -220.641 673.91 -194.16 672.419 -159.924C668.681 -73.5296 766.891 -111.447 841.771 -70.0634C849.316 -65.8766 857.637 -60.4182 862.127 -51.6172C870.947 -34.3988 860.436 -14.5085 848.763 -2.69443C831.538 14.7426 808.04 24.1948 793.2 42.5079C775.447 64.2979 789.788 86.8413 796.904 113.277C808.629 156.368 787.023 184.042 744.269 181.71C699.459 179.258 691.576 164.778 633.769 212.42C607.12 234.376 579.577 257.077 539.143 244.69C518.116 238.234 499.994 222.605 490.751 202.771Z" stroke="black" stroke-width="2" stroke-miterlimit="10"/>
<path d="M522.101 142.754C516.027 130.423 515.826 116.536 506.485 107.722C493.872 95.7854 472.818 100.738 455.906 93.1869C437.676 85.1192 423.69 67.9716 415.448 43.5739C407.844 21.0628 411.743 -0.515303 426.42 -17.2156C450.899 -45.0592 497.776 -52.1977 498.309 -94.6542C498.557 -113.763 489.419 -133.354 498.564 -153.592C515.92 -191.963 587.23 -217.7 624.257 -184.932C638.021 -175.66 654.909 -145.508 654.396 -112.654C653.481 -55.1776 719.019 -78.865 770.109 -48.6007C775.31 -45.4978 781.041 -41.4823 784.176 -35.1378C790.254 -22.8371 783.507 -8.92622 775.167 -0.00864729C769.794 5.72377 763.512 10.3278 757.441 14.7754C730.636 34.421 727.964 41.7077 736.363 69.4989C741.209 85.5407 745.199 103.183 733.816 117.164C722.418 131.168 704.228 130.204 688.215 128.548C665.017 126.123 655.964 126.246 624.602 150.672C605.405 165.628 585.55 181.087 556.797 172.18C541.92 167.561 528.925 156.593 522.101 142.754Z" stroke="black" stroke-width="2" stroke-miterlimit="10"/>
<path d="M553.517 82.8496C549.811 76.2919 549.06 68.7579 544.21 64.1408C537.521 57.8121 526.497 59.3649 517.317 54.5751C507.275 49.3508 499.593 39.3304 495.101 25.5859C490.913 12.7823 492.819 0.271155 500.485 -9.64376C513.049 -25.9116 536.616 -31.4229 538.267 -53.7289C539.041 -64.3417 535.468 -75.4451 541.46 -86.7188C553.15 -108.694 592.885 -122.023 615.117 -105.262C621.292 -102.526 635.013 -87.8514 636.37 -65.5378C637.047 -54.3307 642.326 -47.7208 653.499 -44.0738C665.81 -40.0697 699.566 -33.4819 706.255 -18.5882C709.059 -12.3579 707.332 -4.46067 701.657 2.5666C698.788 6.12576 695.417 9.02853 692.167 11.8303C678.919 23.2507 677.66 26.635 680.795 41.5442C682.894 51.4955 683.913 61.0797 677.223 69.1228C670.246 77.5059 659.975 77.6563 650.397 77.3273C637.724 76.8953 633.159 77.1336 615.529 88.9717C603.727 96.8856 591.525 105.078 574.445 99.6627C565.971 96.9586 558.023 90.8148 553.517 82.8496Z" stroke="black" stroke-width="2" stroke-miterlimit="10"/>
<path d="M585.912 23.8758C573.476 15.1717 570.317 -1.91245 578.871 -14.1991C587.426 -26.4858 604.51 -29.4017 616.946 -20.6976C629.383 -11.9935 632.542 5.09067 623.987 17.3774C615.432 29.6641 598.348 32.5799 585.912 23.8758Z" stroke="black" stroke-width="2" stroke-miterlimit="10"/>
</g>
</g>
</svg>
