<svg fill="evenodd" viewBox="0 0 46 63" id="bible-closed" xmlns="http://www.w3.org/2000/svg"><path d="M45.694 24.525c0-6.102.012-12.205-.011-18.319 0-3.824-1.883-5.684-5.742-5.684H9.765C3.767.522.025 4.218.013 10.147-.011 22.758 0 36.242.024 52.597c.012 5.754 3.778 9.485 9.59 9.485 10.113.012 20.214 0 30.315 0 3.87 0 5.754-1.895 5.765-5.8V24.525zM10.16 2.684l1.244-.058c.988-.058 1.941-.047 2.86-.047h.941c8.23 0 16.448 0 24.678.012 2.696 0 3.754 1.046 3.754 3.743V40.6c0 2.395-1.104 3.557-3.383 3.557-3.23 0-6.474.012-9.705.012-4.476 0-8.962 0-13.438-.012h-5.347c-.174 0-.348-.012-.57-.035l-1.034-.093V2.684zm9.613 43.601v6.103h-5.626v-6.103h5.626zM2.117 10.007c0-3.557 1.697-5.998 4.754-6.881l.988-.29.081 1.522c.023.337.035.628.035.918v9.02c0 9.253 0 18.505.023 27.758 0 1.07-.22 2.209-1.964 2.65-.546.14-1.104.419-1.697.721-.326.163-.64.326-.977.477l-1.034.476-.151-1.534a7.151 7.151 0 01-.07-.872v-2.267c.012-10.566 0-21.132.012-31.698zm25.92 43.752c.257.256.756.395 1.43.395 3.616.012 7.23.012 10.846-.011.488 0 .988-.058 1.522-.116.303-.035.593-.07.907-.093l.895-.082v2.616c-.011 2.452-1.093 3.545-3.51 3.545-3.546.012-7.08.012-10.613.012l-7.358.011c-1.778 0-3.545.012-5.324.012-2.58 0-5.16-.012-7.741-.035-2.953-.023-5.138-1.43-6.347-4.057-1.116-2.464-.813-4.917.86-7.079 2.232-2.87 5.417-2.813 7.626-2.522l.709.093V54.2c0 .988.186 1.674.5 1.86.22.128.79.081 1.697-.453 1.953-1.14 3.626-1.128 5.59.023.733.43 1.36.581 1.663.418.337-.186.535-.895.546-1.871.012-1.558 0-3.115 0-4.743V46.24h21.656v.813c0 .186.011.396.023.616.035.628.07 1.325-.07 2.046-.174.895-.837 2.395-3.324 2.395-3.592-.012-7.16-.012-10.73 0-1.673 0-1.673.674-1.685 1 .012.29.082.5.233.65z"></path><path d="M19.901 19.422c0 .29 0 .976 1.407 1.011.814.023 1.627.012 2.476.012h2.046v12.67c0 .767.29 1.116 1.01 1.185a.797.797 0 00.605-.174c.244-.21.407-.581.442-1.023.012-.279.012-.558.012-.837V20.887l.72-.291c.128-.058.29-.128.512-.14l3.103-.023c1.57-.023 1.581-.697 1.593-.988.011-.279-.058-.5-.221-.662-.256-.268-.767-.43-1.395-.43a79.221 79.221 0 00-2.348 0H27.91V15.98v-1.895c0-.65-.163-1.162-.453-1.44-.175-.164-.337-.245-.605-.222-.813.024-1 .872-1 1.593-.01.79 0 1.58 0 2.394v1.93h-3.3c-.419 0-.826-.012-1.232.011-1.43.059-1.419.814-1.419 1.07z"></path></svg>