<svg width="964" height="1721" viewBox="0 0 964 1721" fill="none" xmlns="http://www.w3.org/2000/svg">
<g opacity="0.5">
<path d="M88.5669 1451.8C38.6777 1452.68 -12.6543 1441.37 -58.4671 1421.86C-122.969 1394.41 -180.683 1352.39 -235.679 1308.17C-413.378 1165.26 -550.825 932.989 -435.694 719.265C-358.488 575.905 -205.023 490.176 -55.0861 438.261C165.188 361.987 598.286 377.198 590.28 718.48C584.932 946.423 426.563 966.389 364.38 1126.16C335.232 1201.02 302.304 1345.53 237.988 1399.83C196.03 1435.28 143.155 1450.84 88.5669 1451.8Z" fill="#F7F0E7"/>
<path d="M570.637 1202.94C554.439 1226.31 532.642 1252.45 504.3 1249.72C483.997 1247.76 467.755 1230.14 462.088 1210.59C456.42 1191.03 459.444 1170.03 464.537 1150.31C482.129 1082.05 576.877 924.593 667.275 942.857C775.873 964.734 595.232 1167.46 570.637 1202.94Z" fill="#F7F0E7"/>
</g>
</svg>
