<svg fill="evenodd" viewBox="0 0 53 54" id="pray-hands" xmlns="http://www.w3.org/2000/svg"><path d="M48.88 41.5c-.48-.48-.96-.96-1.44-1.43-1.08-1.07-2.2-2.17-3.26-3.33-.57-.62-.96-1.56-.97-2.34-.05-5.02-.06-10.19-.01-15.78.02-2.1-.6-3.94-1.9-5.64-1.71-2.23-3.4-4.47-5.1-6.71l-.52-.69c-.91-1.21-1.82-2.41-2.74-3.61C31.39-.07 29.6-.48 27.3.7c-.45.23-1.23.32-1.79.04-.92-.46-1.73-.68-2.49-.68-1.29 0-2.42.66-3.45 2.03-.85 1.12-1.7 2.25-2.55 3.38-1.84 2.44-3.71 4.93-5.59 7.35-1.38 1.78-2.05 3.73-2.03 5.96.04 4.85.03 10.01-.03 15.78-.02.71-.37 1.57-.89 2.13-1.04 1.12-2.15 2.21-3.21 3.27l-.23.23c-.45.45-.9.89-1.35 1.35-.87.88-.87 1.12-.02 1.98 2.91 2.92 5.82 5.84 8.74 8.75.5.5.86.75 1.1.75.23 0 .58-.24 1.06-.73 2.6-2.65 5.19-5.31 7.79-7.98l3.73-3.82 3.13 3.1c3 2.98 5.9 5.84 8.79 8.71.95.94 1.19.94 2.09.05 2.95-2.93 5.9-5.88 8.83-8.83.82-.83.81-1.15-.05-2.02zm-35.37 9.02l-7.87-7.99 4.82-4.74 7.94 7.9-4.89 4.83zm11.93-13.97c0 1.65-.63 3.08-1.92 4.37-.65.66-1.28 1.37-1.95 2.12l-.17.19c-.28.31-.56.64-.87.97l-.5.55-2.41-2.44c-1.92-1.94-3.9-3.95-5.81-5.93-.44-.45-.6-1.16-.6-1.67l-.01-2.2c-.02-4.73-.05-9.62.04-14.43.02-1.19.47-2.54 1.18-3.52 2.19-3.04 4.49-6.06 6.72-8.99l1.81-2.37c1.59-2.08 3.02-1.26 3.43-.95 1.62 1.2.78 2.85.46 3.47-.5.98-.99 1.97-1.47 2.96l-.08.17c-.96 1.94-1.94 3.94-3 5.87-.99 1.79-1.41 3.5-1.33 5.4.08 2.03.06 4.09.05 6.08v.25c-.01.89-.01 1.78-.01 2.67 0 1.33.55 1.33.84 1.34.29 0 .45-.05.59-.19.22-.21.34-.64.34-1.2v-2.46c0-1 0-2 .01-3 .01-1.56.88-2.6 2.21-2.64.62-.03 1.25.21 1.67.62.49.48.77 1.18.77 1.99.02 4.18.01 8.36 0 12.55l.01.42zm-1.45-17.23c-.33-.17-.87-.16-1.5-.15-.43.01-.83.01-1.27-.01l-1.06-.06 6.19-12.31 6.09 12.32-1.06.06c-.39.02-.76.02-1.11.01-.67-.01-1.21-.02-1.58.14-.89.4-1.69.6-2.45.6-.75 0-1.49-.2-2.25-.6zM32.29 44c-.39-.39-.78-.76-1.16-1.11-.94-.88-1.8-1.68-2.47-2.63-.79-1.11-1.3-2.57-1.35-3.81-.11-3.31-.09-6.66-.06-9.91l.02-2.96c0-1.57.88-2.6 2.23-2.62.66-.01 1.27.24 1.69.72.4.46.62 1.1.63 1.84.02 1.03.02 2.06.01 3.1v.17c0 .81 0 1.62.01 2.43.01 1.2.56 1.21.86 1.22.25.01.47-.06.62-.2.19-.18.29-.52.29-.94v-.2c.03-3.65.06-7.41-.02-11.18-.01-.56-.33-1.22-.64-1.85l-.06-.12c-1.47-3.03-3.06-6.25-5.14-10.42-.93-1.86-.16-2.85.66-3.35 1.68-1.03 2.8.46 3.17.95.87 1.15 1.74 2.3 2.62 3.45l.11.14c1.97 2.59 4 5.27 5.95 7.95.65.9 1.07 2.17 1.09 3.31.08 4.88.06 9.94.04 14.41l-.01 2.33c0 .31-.06 1.09-.53 1.58-1.9 1.97-3.79 3.89-5.79 5.91L32.8 44.5l-.51-.5zm6.74 6.41l-4.8-4.73 8.03-8.01 4.73 4.89-7.96 7.85zM52.82 13.39c-.05-.18-.2-.33-.42-.45-2.43-1.27-4.62-2.35-6.71-3.29-.23-.1-.45-.09-.63.03-.25.16-.42.5-.46.92l.06.1c.09.16.26.46.39.53 2.19 1.16 4.46 2.25 6.46 3.21.53.25.89.14 1.18-.38.14-.25.18-.48.13-.67zM45.06 4.96c.16.08.38.07.58-.01 1.92-.88 4.43-2.07 6.87-3.43.06-.08.23-.66.15-.99-.04-.1-.4-.35-.51-.43l-.11-.08-.08.01c-.59.26-1.14.52-1.69.78-1.81.87-3.63 1.75-5.36 2.71-.08.16-.19.77-.09 1.14.03.14.11.24.24.3zM7.74 11.03c.08-.18.15-.8.04-1.02-.07-.1-.58-.35-.78-.35-2.28 1-4.58 2.16-6.8 3.41-.05.08-.22.66-.14.99.04.11.38.35.51.44l.11.08.07-.01c.55-.25 1.1-.52 1.65-.79 1.8-.88 3.62-1.77 5.34-2.75zM6.88 4.92c.15.07.37.13.58.05.18-.07.33-.22.43-.45.37-.8-.16-1.07-.33-1.17C5.85 2.46 4.09 1.6 2.39.76L1.07.11A1.24 1.24 0 00.79.03L.68 0C.65.03.61.06.57.09.41.22.03.52.01.65c-.06.28.21.88.33.96 2.22 1.26 4.55 2.38 6.54 3.31z"></path></svg>