<svg fill="evenodd" viewBox="0 0 61 63" id="answers" xmlns="http://www.w3.org/2000/svg"><path d="M58.706 3.59h-4.688l-.15-.66C53.38.857 53.38.857 51.331.857h-4.353c-1.17 0-1.945 0-2.211.186-.255.185-.486.891-.845 1.968l-.197.579h-.614c-.579 0-1.157 0-1.736.011h-.348c-1.261.012-2.523.012-3.785-.023-.29-.012-.568-.012-.845-.012-1.864 0-3.786.22-5.222 1.841l-.567.637-.637-.579c-1.4-1.285-2.847-1.887-4.56-1.887-3.89.023-7.734.023-11.578.023H2.315C0 3.601 0 3.601 0 5.881V51.24c0 1.933 0 1.933 1.864 2.512l.59.185v6.298c.012 1.656.197 1.84 1.795 1.84h52.524c1.551 0 1.748-.196 1.76-1.724.011-1.308.011-2.605 0-3.901V53.89l.613-.174c1.852-.52 1.852-.52 1.852-2.384V5.998c.012-2.408.012-2.408-2.292-2.408zM29.382 59.298l-.08.764H4.468v-1.806c0-1.147-.012-2.223.046-3.323.046-.787 1.053-1.424 1.679-1.424 3.554-.023 7.12-.046 10.685-.046 3.288 0 6.182.023 8.845.058 1.111.011 2.003.393 2.65 1.123.892.984 1.228 2.547 1.008 4.654zm.116-9.424c0 .266-.023.544-.046.787-.012.162-.024.278-.024.382l-.046.926-.915-.116c-2.268-.3-4.688-.428-7.849-.428-1.308 0-2.616.023-3.913.047-2.107.034-4.202.069-6.286.011-1.632-.046-3.253-.035-4.897-.023h-.22c-.775 0-1.551.011-2.338.011h-.869V5.779l1.077-.105c.313-.034.602-.07.915-.07h21.058c2.825.013 4.33 1.54 4.353 4.4v39.87zm16.89-46.967h5.13v6.656l-2.56-1.157L46.4 9.563V2.907h-.011zm10.177 52.975c-.058.707-.047 1.424-.024 2.188.012.394.012.764.012 1.135v.845H31.975l-.173-.614c-.51-1.76-.336-3.264.474-4.341.8-1.065 2.154-1.62 3.913-1.62h9.042c2.674 0 5.835 0 9.03-.047.59 0 1.331.07 1.84.614.487.532.498 1.261.464 1.84zm2.327-4.561l-.788.058c-.139.011-.266.023-.405.035-.3.023-.59.046-.88.046h-9.215c-3.149 0-6.298 0-9.447.023-1.192.012-2.384.081-3.646.162-.672.046-1.343.081-2.038.116l-.845.035-.058-1.158a13.409 13.409 0 01-.046-.996V10.34c0-3.323 1.412-4.735 4.723-4.735h8v5.175c-.012.95.035 1.4.567 1.702.15.092.29.127.417.127.3 0 .671-.243 1.065-.498l.208-.139c.382-.243.683-.451.926-.625.59-.405.984-.683 1.517-.683.544 0 .96.29 1.655.764.244.174.533.37.892.602l.127.081c.336.22.787.521 1.03.521.035 0 .082 0 .186-.092.393-.371.718-1.1.74-1.68.082-1.539.07-1.863.059-2.57a57.055 57.055 0 01-.024-1.759v-.857h5.268v45.648h.011z"></path><path d="M51.783 22.76c-.926-3.206-3.982-5.267-7.27-4.908a6.762 6.762 0 00-6.032 6.217c-.034.416-.011 1.412.915 1.551.822.116 1.088-.857 1.17-1.285.115-.625.242-1.343.567-1.968.775-1.517 2.35-2.454 4.086-2.454.475 0 .938.07 1.413.197 2.072.602 3.438 2.57 3.3 4.78-.128 2.212-1.784 4.018-4.018 4.377-1.679.266-1.679.347-1.69 1.609v.556a84.967 84.967 0 00.011 2.929c.012.474.162.891.405 1.123a.77.77 0 00.614.185c.753-.07 1.053-.429 1.042-1.285v-2.871l1.088-.475c.359-.15.695-.29 1.007-.451 2.848-1.46 4.284-4.759 3.392-7.826zM46.26 39.999c0-.336-.15-.672-.393-.903a.794.794 0 00-.545-.232h-.058c-.694.058-1.007.37-1.041 1.042a.936.936 0 00.289.695c.208.208.475.29.73.29.636-.047.96-.325 1.018-.892zM21.521 24.602h-4.735v-.822c.012-1.088.012-2.096 0-2.987v-1.459c0-1.516-.764-1.528-1.007-1.528-.243 0-1.019 0-1.03 1.528-.012.822-.012 2.536-.012 4.469v.822l-.822-.012a73.14 73.14 0 00-2.257 0h-1.644c-1.505.012-1.505.776-1.505 1.03 0 .302.07.51.22.672.231.232.683.37 1.273.37 1.065.012 1.887.012 2.698 0h2.037l-.011 7.92c0 1.736 0 3.46.011 5.186.012 1.516.799 1.528 1.054 1.528.428 0 1.007-.15 1.007-1.505.011-2.698.011-7.722.011-12.318v-.81h.81c1.251 0 2.305 0 3.89-.012 1.506-.011 1.506-.73 1.506-1.03-.012-.695-.51-1.042-1.494-1.042z"></path></svg>