<svg width="334" height="100" viewBox="0 0 334 100" fill="none" xmlns="http://www.w3.org/2000/svg">
<mask id="mask0" mask-type="alpha" maskUnits="userSpaceOnUse" x="0" y="0" width="334" height="100">
<rect width="334" height="100" fill="#C4C4C4"/>
</mask>
<g mask="url(#mask0)">
<circle opacity="0.1" cx="164.083" cy="49.9177" r="93.1835" fill="#2F80ED"/>
<ellipse opacity="0.12" cx="164.665" cy="49.9177" rx="64.6461" ry="65.2285" fill="#2F80ED"/>
<circle opacity="0.08" cx="164.083" cy="49.9176" r="122.303" fill="#2F80ED"/>
<circle opacity="0.06" cx="164.083" cy="49.9176" r="154.918" fill="#2F80ED"/>
<circle opacity="0.15" cx="164.082" cy="49.9173" r="38.438" fill="#2F80ED"/>
<path d="M177.972 65.813C178.755 65.8065 179.463 65.473 179.921 64.9022C180.329 64.3892 180.475 63.7542 180.342 63.1129C180.221 62.5293 179.819 61.8559 179.297 61.3492C176.952 59.0724 175.704 56.5711 175.481 53.7172C175.366 52.2549 175.366 50.767 175.36 49.3303C175.36 48.875 175.36 48.4196 175.353 47.9643C175.296 42.1344 171.614 37.6578 165.969 36.5547C165.147 36.3944 164.784 35.9326 164.816 35.1117C164.854 34.2459 164.841 33.348 164.829 32.4886L164.822 32.232C164.822 32.014 164.759 31.2957 164.109 31.2828C163.567 31.2443 163.389 31.751 163.376 32.2C163.351 33.1107 163.338 34.0855 163.376 35.0668C163.414 35.9262 163.026 36.4008 162.147 36.5483C157.598 37.2987 153.89 40.9351 153.119 45.3925C152.82 47.1498 152.832 49.0161 152.845 50.8247L152.852 51.8188C152.864 55.7117 151.546 58.8351 148.825 61.3684C147.806 62.3176 147.532 63.2861 147.991 64.3379C148.443 65.3833 149.265 65.8386 150.615 65.8322C151.603 65.8194 152.584 65.813 153.571 65.813C154.285 65.813 154.992 65.813 155.712 65.8194L158.273 65.8258L158.388 66.2106C159.235 69.0518 161.14 70.7513 163.612 70.8732C166.746 71.0271 168.798 69.5007 169.855 66.1978L169.976 65.8258L172.678 65.8322C174.449 65.8258 176.213 65.8322 177.972 65.813ZM168.103 66.5633C167.371 68.3719 165.874 69.443 164.083 69.443C164.039 69.443 164.001 69.443 163.956 69.443C162.185 69.3917 160.675 68.2501 160.102 66.5313L159.866 65.8194L168.403 65.8194L168.103 66.5633Z" fill="white"/>
<path d="M181.509 47.0324L181.484 46.5268L181.49 46.5268C181.484 46.4756 181.478 46.418 181.478 46.3668C181.428 45.8867 181.384 45.4003 181.309 44.9266C180.671 40.747 178.875 37.0603 175.96 33.9752C175.766 33.7704 175.509 33.6104 175.24 33.6104C175.09 33.6104 174.934 33.6616 174.79 33.796C174.458 34.0904 174.496 34.4808 174.896 34.9673C174.977 35.0697 175.071 35.1657 175.159 35.2617L175.296 35.4153C177.655 38.0204 179.163 41.0927 179.789 44.549C179.926 45.2979 179.989 46.0595 180.045 46.7956C180.083 47.2309 180.114 47.6597 180.164 48.0949C180.22 48.6006 180.445 48.7862 180.927 48.7478C181.24 48.7222 181.528 48.6134 181.553 47.9861C181.559 47.7749 181.547 47.5637 181.528 47.3589C181.522 47.2501 181.509 47.1412 181.509 47.0324Z" fill="white"/>
<path d="M146.873 48.6036C146.979 48.7124 147.147 48.7635 147.353 48.7507C147.621 48.7443 147.995 48.7316 148.045 47.7013C148.095 46.671 148.164 45.8071 148.301 44.9433C148.906 41.2125 150.552 37.885 153.19 35.0502C153.508 34.7046 153.807 34.2119 153.408 33.8151C153.265 33.6743 153.102 33.6168 152.946 33.6104C152.697 33.6168 152.416 33.7767 152.142 34.0647C148.731 37.6994 146.873 42.1276 146.611 47.2214L146.611 47.4581L146.611 47.7013C146.617 48.13 146.711 48.4436 146.873 48.6036Z" fill="white"/>
</g>
<path d="M281.871 11L279.459 11L279.459 20.3184L281.871 20.3184L281.871 11Z" fill="#F8FAFB"/>
<path d="M285.318 14.5061L276 14.5061L276 16.824L285.318 16.824L285.318 14.5061Z" fill="#F8FAFB"/>
<path d="M317.81 83.221L316.105 81.5161L309.516 88.1052L311.221 89.8101L317.81 83.221Z" fill="#F8FAFB"/>
<path d="M317.769 88.1384L311.18 81.5493L309.541 83.1883L316.13 89.7774L317.769 88.1384Z" fill="#F8FAFB"/>
<path d="M46.0135 70.3083H43.3046V80.7776H46.0135V70.3083Z" fill="#F8FAFB"/>
<path d="M49.905 74.2278H39.4358V76.832H49.905V74.2278Z" fill="#F8FAFB"/>
<path d="M84.3679 7.87655L82.663 6.17163L76.0739 12.7607L77.7789 14.4656L84.3679 7.87655Z" fill="#F8FAFB"/>
<path d="M84.3352 12.7856L77.7461 6.19653L76.1071 7.83557L82.6961 14.4246L84.3352 12.7856Z" fill="#F8FAFB"/>
<path d="M225.659 74.3184C223.085 74.3184 221 72.2334 221 69.6592C221 67.085 223.085 65 225.659 65C228.233 65 230.318 67.085 230.318 69.6592C230.318 72.2334 228.222 74.3184 225.659 74.3184ZM225.659 67.3296C224.378 67.3296 223.33 68.3779 223.33 69.6592C223.33 70.9404 224.378 71.9888 225.659 71.9888C226.94 71.9888 227.989 70.9404 227.989 69.6592C227.989 68.3779 226.94 67.3296 225.659 67.3296Z" fill="#F8FAFB"/>
<circle cx="190.873" cy="23.1272" r="11.6479" fill="white"/>
<path d="M186.214 22.5448L190.996 26.6216L196.697 19.6328" stroke="#2469C7" stroke-width="2"/>
</svg>
